<svg width="261" height="66" viewBox="0 0 261 66" fill="none"
  xmlns="http://www.w3.org/2000/svg"
  xmlns:xlink="http://www.w3.org/1999/xlink">
  <symbol id="logo-symbol-wordmark">
    <path d="M 60.7539,14.4034 C 59.8143,7.41942 53.7273,1.91557 46.5117,0.849066 45.2943,0.668854 40.6819,0.0130005 29.9973,0.0130005 H 29.9175 C 19.2299,0.0130005 16.937,0.668854 15.7196,0.849066 8.70488,1.88602 2.29885,6.83152 0.744617,13.8982 -0.00294988,17.3784 -0.0827298,21.2367 0.0561464,24.7759 0.254119,29.8514 0.292531,34.918 0.753482,39.9728 c 0.318668,3.3577 0.874578,6.6886 1.663558,9.9678 1.47741,6.0563 7.45795,11.0963 13.31736,13.1525 6.2733,2.1443 13.0198,2.5003 19.484,1.0281 0.7111,-0.1654 1.4134,-0.3574 2.1068,-0.5761 1.5719,-0.4992 3.4128,-1.0576 4.7661,-2.0384 0.0186,-0.0138 0.0338,-0.0316 0.0445,-0.052 0.0108,-0.0205 0.0168,-0.0431 0.0176,-0.0662 v -4.8982 c -4e-4,-0.0216 -0.0055,-0.0428 -0.0151,-0.0622 -0.0096,-0.0193 -0.0234,-0.0363 -0.0404,-0.0496 -0.017,-0.0133 -0.0368,-0.0226 -0.0579,-0.0273 -0.021,-0.0047 -0.0429,-0.0046 -0.0639,2e-4 -4.1416,0.9892 -8.3856,1.485 -12.6437,1.4772 -7.3279,0 -9.2988,-3.4772 -9.8631,-4.9248 -0.4537,-1.2511 -0.7418,-2.5562 -0.8569,-3.882 -0.0012,-0.0222 0.0029,-0.0445 0.0119,-0.0649 0.009,-0.0203 0.0227,-0.0383 0.04,-0.0524 0.0173,-0.0141 0.0376,-0.024 0.0594,-0.0287 0.0218,-0.0048 0.0444,-0.0043 0.066,0.0013 4.0725,0.9824 8.2473,1.4782 12.4368,1.4771 1.0075,0 2.0122,0 3.0198,-0.0266 4.2135,-0.1182 8.6546,-0.3338 12.8002,-1.1433 0.1034,-0.0207 0.2069,-0.0384 0.2955,-0.065 6.539,-1.2556 12.7618,-5.1966 13.3942,-15.1762 0.0236,-0.3929 0.0827,-4.1153 0.0827,-4.523 0.0029,-1.3856 0.4462,-9.829 -0.065,-15.0167 z" fill="url(#paint0_linear_89_11)" id="path2" style="display:none" />
    <path d="m 12.3442,18.3034 c 0,-2.0366 1.6335,-3.684 3.6528,-3.684 2.0193,0 3.6527,1.6474 3.6527,3.684 0,2.0366 -1.6334,3.684 -3.6527,3.684 -2.0193,0 -3.6528,-1.6474 -3.6528,-3.684 z" fill="currentColor" id="path4" style="display:none" />
    <path d="M 66.1484,21.4685 V 38.3839 H 59.4988 V 21.9744 c 0,-3.4635 -1.4405,-5.2147 -4.3345,-5.2147 -3.1897,0 -4.7975,2.0885 -4.7975,6.2006 v 8.9896 h -6.5981 v -8.9896 c 0,-4.1251 -1.5949,-6.2006 -4.7975,-6.2006 -2.8811,0 -4.3345,1.7512 -4.3345,5.2147 V 38.3839 H 28 V 21.4685 c 0,-3.4505 0.8746,-6.2005 2.6238,-8.2371 1.8136,-2.0366 4.1801,-3.0744 7.1127,-3.0744 3.3955,0 5.9807,1.3232 7.6785,3.9565 l 1.6592,2.8019 1.6592,-2.8019 c 1.6977,-2.6333 4.2701,-3.9565 7.6785,-3.9565 2.9325,0 5.2991,1.0378 7.1127,3.0744 1.7492,2.0366 2.6238,4.7736 2.6238,8.2371 z m 22.8813,8.4058 c 1.3762,-1.4658 2.0322,-3.2948 2.0322,-5.513 0,-2.2182 -0.656,-4.0602 -2.0322,-5.4612 -1.3248,-1.4658 -2.9968,-2.1663 -5.029,-2.1663 -2.0322,0 -3.7042,0.7005 -5.029,2.1663 -1.3248,1.401 -1.9807,3.243 -1.9807,5.4612 0,2.2182 0.6559,4.0602 1.9807,5.513 1.3248,1.401 2.9968,2.1145 5.029,2.1145 2.0322,0 3.7042,-0.7005 5.029,-2.1145 z m 2.0322,-19.0427 h 6.5467 V 37.891 h -6.5467 v -3.1911 c -1.9808,2.6463 -4.7203,3.9564 -8.2831,3.9564 -3.5627,0 -6.3023,-1.349 -8.7332,-4.1121 -2.3923,-2.763 -3.6013,-6.1746 -3.6013,-10.1699 0,-3.9954 1.2218,-7.3551 3.6013,-10.1182 2.4437,-2.763 5.3377,-4.1639 8.7332,-4.1639 3.3956,0 6.3023,1.2972 8.2831,3.9434 v -3.1911 z m 28.5921,13.0367 c 1.929,1.4659 2.894,3.5154 2.842,6.1098 0,2.763 -0.964,4.9294 -2.945,6.4341 -1.981,1.4658 -4.373,2.2182 -7.267,2.2182 -5.235,0 -8.785,-2.1663 -10.663,-6.4341 l 5.685,-3.4116 c 0.759,2.322 2.431,3.5154 4.978,3.5154 2.341,0 3.498,-0.7524 3.498,-2.322 0,-1.1415 -1.517,-2.1663 -4.617,-2.9706 -1.17,-0.3242 -2.135,-0.6485 -2.894,-0.921 -1.067,-0.428 -1.981,-0.921 -2.739,-1.5177 -1.878,-1.4658 -2.843,-3.4116 -2.843,-5.9022 0,-2.6463 0.913,-4.7607 2.74,-6.2784 1.877,-1.5696 4.167,-2.322 6.906,-2.322 4.374,0 7.563,1.8939 9.647,5.7336 l -5.582,3.243 c -0.81,-1.842 -2.187,-2.763 -4.065,-2.763 -1.98,0 -2.945,0.7523 -2.945,2.2182 0,1.1415 1.518,2.1663 4.618,2.9705 2.392,0.5449 4.27,1.3491 5.633,2.3869 z m 20.823,-6.3303 h -5.736 v 11.2597 c 0,1.3491 0.514,2.1663 1.479,2.5425 0.707,0.2724 2.135,0.3243 4.27,0.2205 v 6.3303 c -4.411,0.5448 -7.614,0.1038 -9.492,-1.3491 -1.878,-1.401 -2.791,-4.0083 -2.791,-7.7313 V 17.538 h -4.412 v -6.7064 h 4.412 V 5.37038 l 6.547,-2.11443 v 7.57565 h 5.736 v 6.7064 z m 20.875,12.1807 c 1.325,-1.401 1.981,-3.1911 1.981,-5.3574 0,-2.1663 -0.656,-3.9435 -1.981,-5.3574 -1.325,-1.401 -2.945,-2.1145 -4.926,-2.1145 -1.981,0 -3.601,0.7005 -4.926,2.1145 -1.273,1.4658 -1.929,3.243 -1.929,5.3574 0,2.1144 0.656,3.8916 1.929,5.3574 1.325,1.4009 2.945,2.1144 4.926,2.1144 1.981,0 3.601,-0.7005 4.926,-2.1144 z m -14.469,4.8126 c -2.586,-2.7631 -3.859,-6.1098 -3.859,-10.17 0,-4.0602 1.273,-7.3551 3.859,-10.1181 2.585,-2.763 5.787,-4.164 9.543,-4.164 3.756,0 6.958,1.401 9.544,4.164 2.585,2.763 3.91,6.1746 3.91,10.1181 0,3.9434 -1.325,7.4069 -3.91,10.17 -2.586,2.763 -5.737,4.1121 -9.544,4.1121 -3.807,0 -6.958,-1.3491 -9.543,-4.1121 z m 44.888,-4.657 c 1.324,-1.4658 1.98,-3.2948 1.98,-5.513 0,-2.2182 -0.656,-4.0602 -1.98,-5.4612 -1.325,-1.4658 -2.997,-2.1663 -5.029,-2.1663 -2.033,0 -3.705,0.7005 -5.081,2.1663 -1.325,1.401 -1.981,3.243 -1.981,5.4612 0,2.2182 0.656,4.0602 1.981,5.513 1.376,1.401 3.1,2.1145 5.081,2.1145 1.98,0 3.704,-0.7005 5.029,-2.1145 z M 193.751,0 h 6.547 v 37.891 h -6.547 v -3.1911 c -1.929,2.6463 -4.669,3.9564 -8.231,3.9564 -3.563,0 -6.341,-1.349 -8.785,-4.1121 -2.392,-2.763 -3.601,-6.1746 -3.601,-10.1699 0,-3.9954 1.222,-7.3551 3.601,-10.1182 2.431,-2.763 5.376,-4.1639 8.785,-4.1639 3.408,0 6.302,1.2972 8.231,3.9434 V 0.0129719 Z m 29.557,29.7057 c 1.325,-1.401 1.981,-3.1911 1.981,-5.3574 0,-2.1663 -0.656,-3.9435 -1.981,-5.3574 -1.325,-1.401 -2.945,-2.1144 -4.926,-2.1144 -1.981,0 -3.602,0.7005 -4.926,2.1144 -1.274,1.4658 -1.93,3.243 -1.93,5.3574 0,2.1144 0.656,3.8916 1.93,5.3574 1.324,1.401 2.945,2.1144 4.926,2.1144 1.981,0 3.601,-0.7005 4.926,-2.1144 z m -14.47,4.8126 c -2.585,-2.763 -3.858,-6.1098 -3.858,-10.17 0,-4.0602 1.273,-7.3551 3.858,-10.1181 2.586,-2.763 5.788,-4.164 9.544,-4.164 3.755,0 6.958,1.401 9.543,4.164 2.586,2.763 3.91,6.1746 3.91,10.1181 0,3.9435 -1.324,7.407 -3.91,10.17 -2.585,2.763 -5.736,4.1121 -9.543,4.1121 -3.807,0 -6.958,-1.3491 -9.544,-4.1121 z M 260.17,21.261 v 16.617 h -6.547 V 22.1301 c 0,-1.7901 -0.45,-3.1392 -1.376,-4.164 -0.862,-0.921 -2.083,-1.401 -3.653,-1.401 -3.704,0 -5.582,2.2182 -5.582,6.7065 V 37.878 h -6.546 V 10.8316 h 6.546 v 3.0354 c 1.569,-2.5425 4.065,-3.7878 7.563,-3.7878 2.791,0 5.081,0.9729 6.856,2.9706 1.826,1.9976 2.739,4.7088 2.739,8.2242" fill="currentColor" id="path6" style="display:none" />
    <g style="clip-rule:evenodd;fill-rule:evenodd;stroke-miterlimit:10" id="g397" transform="matrix(0.09952876,0,0,0.0998395,0.10037141,-62.008076)">
      <g id="banner" transform="translate(-717.08501,-912.4552)" style="clip-rule:evenodd;fill-rule:evenodd;stroke:#000000;stroke-width:3;stroke-miterlimit:10;stroke-dasharray:none;stroke-opacity:1;paint-order:fill markers stroke">
        <path style="color:#000000;clip-rule:evenodd;fill:#5d0a14;fill-rule:nonzero;stroke-miterlimit:10;-inkscape-stroke:none" d="m 1616,800 c -216.3588,0 -424.0112,86.01122 -577,239 -152.98878,152.9888 -239,360.6412 -239,577 0,216.3588 86.01122,424.0112 239,577 152.9888,152.9888 360.6412,239 577,239 216.3588,0 424.0112,-86.0112 577,-239 152.9888,-152.9888 239,-360.6412 239,-577 0,-216.3588 -86.0112,-424.0112 -239,-577 C 2040.0112,886.01122 1832.3588,800 1616,800 Z m 0,300 c 136.9092,0 268.0578,54.3234 364.8672,151.1328 C 2077.6766,1347.9422 2132,1479.0908 2132,1616 c 0,136.9092 -54.3234,268.0578 -151.1328,364.8672 C 1884.0578,2077.6766 1752.9092,2132 1616,2132 1479.0908,2132 1347.9422,2077.6766 1251.1328,1980.8672 1154.3234,1884.0578 1100,1752.9092 1100,1616 c 0,-136.9092 54.3234,-268.0578 151.1328,-364.8672 C 1347.9422,1154.3234 1479.0908,1100 1616,1100 Z" id="circle" label="Circle" transform="translate(51.085007,246.4552)" />
        <path id="path429" style="display:inline;fill:#2d2e83;fill-rule:nonzero;stroke:#000000;stroke-width:1;stroke-dasharray:none;stroke-opacity:1;paint-order:fill markers stroke" d="m 2609.621,2184.4412 c -607.9422,-195.9107 -1277.1158,-195.7883 -1885.072,0 0,-214.6573 0,-429.3147 0,-643.972 607.9423,195.9106 1277.1158,195.7882 1885.072,0 0,214.6573 0,429.3147 0,643.972 z" path-effect="#path-effect568" original-d="m 2609.621,2184.4412 c -607.9422,-195.9107 -1277.1158,-195.7883 -1885.072,0 0,-214.6573 0,-429.3147 0,-643.972 607.9423,195.9106 1277.1158,195.7882 1885.072,0 0,214.6573 0,429.3147 0,643.972 z" class="UnoptimicedTransforms" label="Blue" />
      </g>
      <g aria-label="SKINHEADS" id="text4159" style="font-size:240px;font-family:ChunkFive;-inkscape-font-specification:ChunkFive;clip-rule:evenodd;display:inline;fill:#ffffff;fill-rule:evenodd;stroke:#000000;stroke-width:43.1251;stroke-miterlimit:10;stroke-dasharray:none;paint-order:stroke fill markers" transform="matrix(0.9292476,0,0,0.88011077,-550.21836,-469.21511)" transform-center-x="925.99428" transform-center-y="303.61672" label="Skinheads" path-effect="#path-effect4180;#path-effect4182" class="UnoptimicedTransforms">
        <path d="m 740.80675,1841.991 c -0.0109,-16.1691 0.60159,-32.6903 1.522,-49.1893 5.61863,14.2097 13.70813,27.8656 24.41424,37.3515 10.69766,9.4784 23.53568,14.3661 38.1488,12.1615 17.06468,-2.5745 35.50543,-13.2971 49.31127,-33.1341 13.78087,-19.801 24.27286,-50.4332 24.9283,-98.6332 0.50127,-36.8624 -6.26483,-64.3268 -16.91403,-85.5857 -10.60184,-21.1644 -24.88695,-35.8689 -39.1622,-47.9057 -14.28106,-12.0416 -28.56932,-21.436 -39.35752,-32.0659 -10.77722,-10.619 -18.09982,-22.5224 -18.39714,-39.3815 -0.40488,-22.9578 10.98633,-33.8975 19.33333,-33.5095 10.04136,0.4669 19.31448,7.5558 26.12915,20.2975 6.81598,12.7442 11.31623,31.4042 11.65767,55.4924 17.28355,0.283 34.60523,0.6024 51.93437,0.9491 -0.62551,-50.724 -2.0507,-107.3378 1.71491,-146.5957 -16.55488,-2.4863 -33.12851,-4.9278 -49.66766,-7.2894 -2.31943,15.1729 -3.92235,31.3156 -5.13607,47.9166 -5.39075,-22.7285 -13.54193,-38.3923 -23.37461,-49.0687 -9.86622,-10.7127 -21.57128,-16.5475 -33.68579,-18.3134 -14.0878,-2.0535 -32.52409,5.5773 -47.16972,27.5063 -14.85347,22.2401 -24.55482,57.1582 -23.42838,107.3398 0.95496,42.5424 8.39436,73.7778 18.60035,96.3454 10.33726,22.8578 23.78861,37.6756 37.39917,48.7767 27.09934,22.1029 54.48105,29.0837 54.05611,54.3375 -0.45411,26.9873 -14.84462,32.651 -24.89416,33.0392 -6.00304,-0.4095 -15.02821,-2.6386 -22.37185,-11.742 -7.39481,-9.1669 -12.97911,-25.0996 -12.52267,-53.1598 -17.69442,0.1595 -35.38427,0.262 -53.04779,0.2953 -0.95216,51.5715 -3.55967,117.7542 -0.42706,169.3701 16.79909,-1.7112 33.60869,-3.5919 50.40698,-5.605 z" id="path4161" style="stroke-width:43.1251;stroke-dasharray:none" label="S1" original-d="m 896.36041,1700.24 2.64,-18.48 c 9.12,10.8 25.92,22.08 50.16,22.08 28.56,0 63.59999,-13.44 63.59999,-50.88 0,-56.4 -95.03999,-50.64 -95.03999,-75.36 0,-8.4 9.6,-12.72 16.56,-12.72 16.8,0 30.72,10.08 30.72,27.84 h 43.43999 v -60.24 h -41.27999 l -2.4,20.16 c -9.6,-18 -30,-24.48 -50.16,-24.48 -23.52,0 -57.12,16.08 -57.12,51.6 0,61.2 92.16,53.28 92.16,72 0,10.08 -12,12 -20.4,12 -10.08,-0.48 -30.24,-3.84 -30.24,-24 h -44.64 v 60.48 z" />
        <path d="m 986.87636,1419.3117 c -30.18107,-4.6914 -61.0514,-9.5149 -91.15651,-14.0974 -2.03897,20.6444 -2.53096,44.4936 -2.53457,69.3444 0.16426,0.011 15.42758,1.009 15.59184,1.0196 -0.0763,84.3681 0.21786,189.0062 -0.0753,273.811 0.18246,-0.012 -15.76365,1.0283 -15.58119,1.0162 -0.10347,25.1322 0.20103,49.3676 1.95464,70.2746 30.05227,-4.528 60.96962,-9.3114 91.11059,-13.9472 -1.65743,-17.533 -2.02582,-39.2065 -2.01137,-62.5104 0.45637,-0.032 -16.09429,1.1268 -15.63792,1.0947 0.0216,-18.6468 0.31409,-41.6155 0.52883,-62.432 7.36481,-13.2275 14.38471,-25.9934 21.68568,-39.3537 9.97925,34.3114 20.35995,69.8591 30.54015,98.0688 3.1133,-0.2206 -22.84028,1.6171 -19.7269,1.3965 -0,22.9558 0.3744,44.1521 2.0074,61.066 37.8673,-5.8048 75.2529,-11.4507 113.2791,-16.8647 -1.432,-13.1463 -1.8196,-31.4011 -1.8794,-52.1668 -0.2644,0.018 -16.6421,1.1469 -16.9066,1.1651 -16.4283,-41.6545 -41.127,-127.6054 -58.3113,-181.6918 13.7596,-24.3116 27.7212,-47.4385 41.8686,-66.8394 -0.4135,-0.029 17.3106,1.2142 16.8971,1.1851 0.1603,-20.7 0.7202,-38.8927 2.4378,-52.1783 -32.4027,-4.755 -64.3883,-9.6547 -96.6904,-14.6607 -1.9064,16.5898 -2.4647,37.3552 -2.5738,59.9798 1.5034,0.1066 19.3939,1.3783 20.8972,1.4849 -17.8969,26.5695 -35.81982,59.609 -53.25626,92.9167 -0.22474,-33.9898 -0.79073,-67.0657 -0.68545,-96.7301 0.3601,0.025 15.28608,1.0732 15.64617,1.0984 0.0958,-22.9807 0.64831,-44.2304 2.5819,-61.4493 z" id="path4163" style="stroke-width:43.1251;stroke-dasharray:none" label="K" original-d="m 1100.3602,1532.48 h -75.6 v 30.96 h 12.96 v 105.6 h -12.96 v 31.2 h 75.6 v -31.2 h -12.96 v -25.68 l 17.76,-15.12 25.92,40.8 h -16.32 v 31.2 h 93.6 v -31.2 h -13.92 l -48.48,-75.6 34.8,-30 h 13.92 v -30.96 h -79.92 v 30.96 h 17.28 l -44.64,39.12 v -39.12 h 12.96 z" />
        <path d="m 1129.7151,1492.4232 c -0.2501,-0.017 18.6456,1.2399 18.3955,1.2232 -0.5259,67.3692 -0.3508,169.5096 -0.1649,237.7476 -0.2197,0.014 -18.1729,1.1965 -18.3927,1.2108 0.051,21.1046 0.4225,39.5516 1.8551,52.537 32.285,-4.5234 64.4621,-8.7785 96.8593,-12.6922 -1.1984,-10.2291 -1.5373,-26.4948 -1.6087,-45.9413 -0.1146,0.01 -18.0523,1.0717 -18.167,1.0784 -0.2276,-64.79 -0.377,-166.2639 0.1688,-230.0824 -0.1248,-0.01 18.2916,1.1043 18.1668,1.0966 0.1648,-19.0163 0.6495,-34.7483 2.0631,-44.5181 -32.369,-3.9918 -64.5304,-8.3198 -96.8003,-12.91 -1.6816,12.5821 -2.2202,30.5351 -2.375,51.2504 z" id="path4165" style="stroke-width:43.1251;stroke-dasharray:none" label="I" original-d="m 1220.3599,1564.16 h 15.12 v 104.16 h -15.12 v 31.92 h 79.68 v -31.92 h -14.88 v -104.16 h 14.88 v -31.68 h -79.68 z" />
        <path d="m 1462.0401,1475.4671 c -27.5251,-1.5417 -54.9709,-3.4677 -82.4508,-5.7556 -0.8908,6.337 -1.2288,18.9942 -1.365,35.4013 6.68,0.2759 13.3608,0.5418 20.0445,0.7973 -0.1374,29.9903 0.2283,73.4224 0.2946,115.9545 -20.6531,-41.3148 -39.7829,-80.5666 -60.347,-113.3076 -9.3209,-19.0449 -18.3082,-34.2562 -26.5977,-43.9187 -22.6575,-2.6566 -45.2433,-5.571 -67.8326,-8.7444 -1.3377,9.1745 -1.8187,24.1095 -1.9932,42.3048 -0.088,-0.01 17.1049,0.9945 17.0172,0.9893 -0.5909,61.5742 -0.4671,164.7425 -0.1707,227.2162 -0.084,0 -17.228,0.9877 -17.3121,0.9924 0.086,18.4393 0.4302,33.7432 1.5559,43.3127 29.9534,-3.5141 59.8542,-6.6948 89.8897,-9.4927 -0.8771,-7.6241 -1.1564,-21.3634 -1.2357,-38.581 -7.5552,0.3535 -15.1056,0.7189 -22.6548,1.0959 -0.1503,-31.857 0.2394,-75.6671 0.2221,-118.6116 17.6308,36.8644 35.6844,75.0238 53.3194,103.2961 4.877,9.693 9.7924,18.411 14.7727,25.7868 2.2069,3.5674 4.4299,6.8257 6.6728,9.7339 2.0656,4.5945 4.1817,8.3665 6.3662,11.1657 19.308,-0.9673 38.6087,-1.8373 57.9217,-2.5826 -0.6092,-6.8296 -0.9488,-194.3653 -0.6182,-244.9182 6.4947,0.197 12.9898,0.3836 19.487,0.5596 2.3026,-16.6245 7.4097,-22.7221 8.3806,-25.5639 1.066,-3.1203 -1.3658,-4.5857 -13.3666,-7.1302 z" id="path4167" style="stroke-width:43.1251;stroke-dasharray:none" label="N" original-d="m 1491.0904,1532.6358 -67.4505,-0.1558 v 30.96 h 16.32 l 0.24,57.12 -49.1308,-54.0094 -22.9831,-32.5368 -55.8061,-1.5338 v 30.96 h 13.92 v 105.84 h -14.16 v 30.96 h 73.68 v -30.96 h -18.48 v -56.1132 l 43.6724,48.6676 11.9192,16.3993 5.2707,7.9087 4.7196,12.2729 47.2181,1.8247 v -136.8 h 15.84 c 3.7939,-23.267 15.0409,-23.5643 -4.7895,-30.8042 z" />
        <path d="m 1481.7881,1509.6363 c 5.416,0.1308 10.8322,0.2542 16.2496,0.3701 -0.2384,52.8591 -0.2012,151.8706 -0.1041,205.8881 -5.4193,0.1062 -10.8374,0.22 -16.2553,0.3413 0.035,16.4249 0.1646,28.9008 0.5871,34.5441 31.7938,-1.4371 63.5208,-2.3507 95.3432,-2.7232 -0.098,-5.0744 -0.1207,-17.1107 -0.1205,-33.1682 -6.1146,0.034 -12.228,0.079 -18.3418,0.1329 0,3.5565 0.049,-64.4819 0.047,-68.0383 17.603,-0.034 35.1891,-0.045 52.7974,-0.034 -10e-5,0 3.4041,0 3.404,0 0,-9.1962 -0.037,77.0484 -0.034,67.8522 0,0 -3.4046,-0 -3.4047,-0 -4.6845,-0 -9.3686,8e-4 -14.0529,0.01 -0.01,16.0123 -0.01,28.065 0.018,33.0817 4.6609,-0.021 9.3215,-0.03 13.9824,-0.027 1.9685,0 3.9369,0 5.9053,0.01 25.2795,0.068 50.5124,0.4781 75.7793,1.2236 0.303,-5.2884 0.4152,-17.4587 0.4613,-33.6564 -5.7174,-0.086 -11.4348,-0.1632 -17.1534,-0.232 0.1304,-53.3439 0.1486,-152.1196 0.042,-204.1791 5.7168,-0.058 11.4325,-0.1249 17.1483,-0.2004 -0.042,-15.8123 -0.1529,-27.459 -0.4597,-32.1256 -25.2354,0.6883 -50.4357,1.0349 -75.6804,1.0346 -1.9657,0 -3.9315,-0 -5.8972,-0.01 -4.6546,-0.01 -9.3088,-0.032 -13.9632,-0.065 -0.071,4.4609 -0.1007,15.9257 -0.1151,31.6105 4.6827,0.018 9.3652,0.031 14.0481,0.037 0,0 3.4034,0 3.4035,0 -10e-4,3.9894 -0.013,63.0121 -0.014,67.0015 10e-5,0 -3.404,-0 -3.4039,-0 -17.6078,-0.016 -35.194,-0.053 -52.7964,-0.1103 -0.01,-24.3054 -0.021,-50.3147 0.019,-67.2152 6.1116,0.066 12.2229,0.1221 18.3352,0.1682 0.027,-15.7093 0.086,-27.2137 0.2381,-31.7139 -31.7774,-0.4618 -63.4606,-1.4679 -95.2094,-2.9978 -0.5255,5.0998 -0.7233,17.0934 -0.8043,33.1865 z" id="path4169" style="stroke-width:43.1251;stroke-dasharray:none" label="H" original-d="m 1507.8798,1564.16 h 13.2 v 104.4 h -13.2 v 31.68 h 77.76 v -31.68 h -14.88 v -36.24 h 45.6 v 36.24 h -14.16 v 31.68 h 78 v -31.68 h -13.92 v -104.4 h 13.92 v -31.68 h -78 v 31.68 h 14.16 v 36.24 h -45.6 v -36.24 h 14.88 v -31.68 h -77.76 z" />
        <path d="m 1708.8674,1510.6166 c 6.2074,-0.098 12.4132,-0.2061 18.619,-0.3242 0.1986,52.6144 0.1616,151.2543 -0.027,205.3741 -6.2075,-0.128 -12.4151,-0.2462 -18.6243,-0.3546 -0.051,16.4428 -0.1791,28.8366 -0.5349,34.2587 59.3367,2.0544 118.0143,5.9152 177.1521,11.3304 1.5297,-12.6911 1.435,-45.3641 1.3442,-82.5115 -16.9796,-0.3942 -33.9531,-0.7594 -50.9613,-1.093 0.027,14.9896 0.046,29.6254 -0.016,41.5584 -15.7313,-0.5959 -31.4587,-1.1365 -47.2089,-1.6188 0.084,-18.4549 0,-50.1758 -0.022,-76.2255 0.507,0 55.5174,0.4383 56.0243,0.4419 -0.034,-25.7388 -0.015,-45.8023 0.039,-70.9332 -18.6715,0.217 -37.3309,0.4085 -56.032,0.5731 0.036,-22.4829 0.092,-46.0647 0,-62.2822 15.7466,-0.4624 31.4708,-0.9853 47.1991,-1.566 0.074,11.175 0.065,24.7268 0.04,38.8611 17.0088,-0.3272 33.9828,-0.6893 50.9635,-1.0837 0.083,-35.7812 0.1065,-66.3593 -1.5392,-77.8398 -59.082,5.3864 -117.7012,9.1582 -176.9639,11.0843 0.3639,4.759 0.4959,16.4793 0.546,32.3505 z" id="path4171" style="stroke-width:43.1251;stroke-dasharray:none" label="E" original-d="m 1692.1998,1564.16 h 15.12 v 104.16 h -15.12 v 31.92 h 144.72 V 1646 h -41.52 v 22.32 h -38.4 v -39.12 h 45.6 v -31.92 h -45.6 v -33.12 h 38.4 v 21.36 h 41.52 v -53.04 h -144.72 z" />
        <path d="m 2130.8584,1736.1607 c 0.4857,0.033 -20.8946,-1.4137 -20.4088,-1.3806 -15.1111,-72.5571 -30.2461,-177.7803 -46.3459,-243.0098 -1.481,-9.7584 -3.0668,-18.6524 -4.8267,-26.3554 -0.7418,-6.8634 -1.6265,-12.8669 -2.7195,-17.8096 -37.3844,5.0282 -74.6257,9.6233 -112.1381,13.6771 1.1827,8.1323 1.6074,22.2277 1.7607,39.7616 0.034,-0 12.0074,-0.6516 12.0416,-0.6534 -12.6816,61.2267 -26.0482,163.2486 -39.6533,222.9101 -6.6665,-0.3324 -13.3341,-0.6565 -20.0053,-0.9717 -0.1074,17.668 -0.4279,31.8057 -1.3831,39.6656 31.1083,2.9526 62.0717,6.3014 93.0951,9.9888 1.2151,-9.937 1.601,-25.7398 1.7143,-44.7002 -7.6254,-0.4445 -15.2522,-0.8803 -22.8847,-1.3067 2.1102,-9.5804 4.16,-20.2127 6.1777,-31.4785 20.0634,0.7134 40.0471,1.4627 60.0556,2.2412 2.1088,11.9167 4.1517,23.0183 6.1596,33.5457 -9.2684,-0.582 -18.5374,-1.1537 -27.8171,-1.7141 -0.1118,19.3006 -0.5091,35.5449 -1.7796,46.0356 39.1533,4.842 77.9187,10.1301 116.9156,15.7335 1.532,-13.8938 1.9604,-32.8311 2.0419,-54.1792 z m -125.6662,-200.7449 c 5.951,27.2077 12.9521,64.0048 19.0759,94.9034 1.0342,0.01 -39.3748,-0.2815 -38.3405,-0.274 6.6508,-33.883 12.4324,-63.4439 19.2646,-94.6294 z" id="path4173" style="stroke-width:43.1251;stroke-dasharray:none" label="A" original-d="m 2036.8397,1668.8 h -16.8 l -38.0544,-106.5195 -3.4138,-15.8513 -1.0118,-13.9492 h -92.16 v 30.96 h 9.84 l -32.4,105.36 h -16.32 v 31.44 h 76.32 v -31.44 h -18.72 l 5.04,-16.32 h 49.2 l 5.04,16.32 h -22.8 v 31.44 h 96.24 z m -103.2,-86.2463 15.84,41.1263 h -31.44 z" />
        <path d="m 2227.8667,1805.0259 c 35.6995,5.3996 64.9716,-3.3096 84.3179,-35.6723 9.6683,-16.1733 16.5909,-37.749 21.1034,-65.3019 4.4883,-27.4053 6.5385,-60.4465 6.6138,-97.423 0.1279,-62.8639 -8.3019,-115.0644 -27.5993,-147.2246 -9.6257,-16.0419 -21.6521,-26.791 -35.8722,-32.7789 -14.1535,-5.9598 -30.2522,-7.1108 -47.7887,-4.3799 -29.5661,4.6043 -58.8825,9.1168 -88.5348,13.5107 1.743,13.872 2.2689,32.8276 2.3943,54.2913 0.4408,-0.03 17.6098,-1.225 18.0507,-1.2556 0.3888,72.2141 0.1984,174.9943 0.012,248.3909 0.7311,0.05 -18.78,-1.2731 -18.0489,-1.2234 -0.066,21.9766 -0.4849,41.5827 -2.0619,56.0608 29.2862,4.2483 58.2152,8.5896 87.4136,13.0059 z m 45.8472,-198.2353 c -0.069,39.8839 -2.8078,74.9618 -9.5726,98.8715 -6.7832,23.9744 -17.589,36.8335 -32.9915,36.33 -0.2832,-0.019 -10.7386,-0.7293 -11.0219,-0.7485 0.056,-77.3077 0.2699,-180.3942 -0,-256.6404 -0.6077,0.043 11.6314,-0.8183 11.0237,-0.7755 15.4099,-1.0828 26.2537,11.5531 33.0756,34.0957 6.7975,22.4621 9.5503,54.7544 9.4909,88.8672 z" id="path4175" style="stroke-width:43.1251;stroke-dasharray:none" label="D" original-d="m 2118.6798,1700.24 c 59.04,0 92.16,-31.44 92.16,-86.16 0,-45.84 -33.12,-81.6 -91.2,-81.6 h -73.2 v 31.68 h 14.88 v 104.16 h -14.88 v 31.92 z m 36.96,-86.16 c 0,30 -10.56,53.76 -36,54.24 h -9.12 v -104.16 h 9.12 c 25.44,0 36,24.24 36,49.92 z" />
        <path d="m 2399.6737,1830.437 c 2.133,-13.8679 3.712,-28.5664 4.9765,-43.6853 5.275,13.7642 12.6507,27.957 22.0708,39.1704 9.383,11.1691 21.2315,19.9005 35.7174,21.899 17.1033,2.3595 37.1668,-3.4802 52.7837,-24.2198 15.8475,-21.0457 25.8701,-55.5689 24.6863,-108.4456 -0.8799,-39.2984 -8.4213,-68.2131 -18.9808,-89.8135 -10.6546,-21.7947 -24.5598,-36.6553 -38.5874,-48.7268 -27.9725,-24.0716 -56.0695,-36.7049 -55.5579,-69.8224 0.3472,-22.4708 11.9016,-34.2093 20.2346,-34.6062 10.0616,-0.4793 19.1991,5.7809 25.6728,18.4503 6.493,12.7073 10.2059,31.6352 9.7871,56.3111 17.2324,-0.1748 34.4603,-0.298 51.663,-0.3589 1.0035,-52.0255 3.4287,-116.3422 -0.218,-167.9436 -16.5267,1.7969 -33.0637,3.7487 -49.5896,5.8208 0.3759,17.4319 -0.026,35.329 -0.8045,53.2285 -6.0053,-23.6681 -15.8881,-38.3974 -27.2265,-46.6683 -11.3152,-8.254 -24.0245,-10.0563 -36.096,-8.142 -14.0599,2.2295 -30.2372,14.1009 -42.6823,34.6967 -12.4149,20.5455 -22.3681,51.742 -22.9481,97.393 -0.5083,40.0055 5.9681,69.5099 16.3209,91.9024 10.28,22.2352 24.1512,36.9458 37.9876,48.0501 13.8447,11.1109 27.6792,18.6383 38.0957,26.6024 10.4134,7.9617 17.4266,16.379 17.6598,29.206 0.5014,27.5881 -13.7826,32.129 -23.8377,31.7356 -6.0328,-0.8747 -15.1194,-3.7936 -22.7804,-13.1329 -7.6389,-9.3125 -13.9763,-25.1411 -14.3318,-52.4475 -17.7627,-0.2898 -35.5652,-0.6175 -53.3762,-0.9736 0.5752,50.5434 2.0684,108.3086 -1.1738,147.3134 16.8455,2.461 33.7081,4.8752 50.5348,7.2067 z" id="path4177" style="stroke-width:43.1251;stroke-dasharray:none" label="S2" original-d="m 2261.2396,1700.24 2.64,-18.48 c 9.12,10.8 25.92,22.08 50.16,22.08 28.56,0 63.6,-13.44 63.6,-50.88 0,-56.4 -95.04,-50.64 -95.04,-75.36 0,-8.4 9.6,-12.72 16.56,-12.72 16.8,0 30.72,10.08 30.72,27.84 h 43.44 v -60.24 h -41.28 l -2.4,20.16 c -9.6,-18 -30,-24.48 -50.16,-24.48 -23.52,0 -57.12,16.08 -57.12,51.6 0,61.2 92.16,53.28 92.16,72 0,10.08 -12,12 -20.4,12 -10.08,-0.48 -30.24,-3.84 -30.24,-24 h -44.64 v 60.48 z" />
      </g>
    </g>
  </symbol>
  <use xlink:href="#logo-symbol-wordmark"/>
</svg>
